# xmcd
#
# Track frame offsets: 
#        150
#        15236
#        24361
#        39314
#        54552
#        69016
#        89356
#        104765
#        125756
#        138647
#        158355
#        172926
#        183305
#
# Disc length: 2635 seconds
#
# Revision: 0
# Processed by: cddbd v1.5.2PL0 Copyright (c) Steve Scherf et al.
# Submitted via: ExactAudioCopy v0.99pb4
#
DISCID=9b0a490d
DTITLE=The Delfonics - The Very Best of the Delfonics [CD1)
DYEAR=2007
DGENRE=R&B
TTITLE0=La-La Means I love you
TTITLE1=Ready or not here I come (Can't hide from love)
TTITLE2=You got yours and I'll get mine
TTITLE3=Didn't I (Blow your mind this time)
TTITLE4=I told you so
TTITLE5=First thing on my mind
TTITLE6=Hey baby
TTITLE7=Think it over
TTITLE8=Pardon me girl
TTITLE9=Seventeen (And in love)
TTITLE10=I don't want to make you wait
TTITLE11=Love is
TTITLE12=Can't go on living
EXTD=
EXTT0=
EXTT1=
EXTT2=
EXTT3=
EXTT4=
EXTT5=
EXTT6=
EXTT7=
EXTT8=
EXTT9=
EXTT10=
EXTT11=
EXTT12=
PLAYORDER=
